<svg xmlns="http://www.w3.org/2000/svg" xmlns:xlink="http://www.w3.org/1999/xlink" width="500" zoomAndPan="magnify" viewBox="0 0 375 374.999991" height="500" preserveAspectRatio="xMidYMid meet" version="1.0"><defs><g/></defs><path fill="#c9a377" d="M 226.4375 155.253906 C 226.339844 156.132812 224.839844 164.78125 203 165.609375 C 179.996094 166.476562 170.507812 168.703125 164.730469 179.398438 C 159.691406 188.761719 166.238281 199.054688 175.5625 202.496094 L 175.5625 202.503906 C 163.03125 198.152344 153.910156 189.5 149.035156 181.460938 C 142.667969 170.96875 143.21875 164.539062 143.898438 160.71875 L 143.914062 160.71875 C 144.464844 158.339844 152.3125 154.429688 161.574219 154.636719 L 161.574219 154.621094 C 170.242188 155.226562 181.050781 155.671875 193.511719 155.507812 C 207.875 155.324219 218.628906 155.347656 226.4375 155.253906 Z M 226.4375 155.253906 " fill-opacity="1" fill-rule="nonzero"/><path fill="#e8dbcf" d="M 240.835938 154.636719 C 241.085938 155.84375 241.226562 157.347656 241.21875 159.078125 C 241.183594 167.007812 238.027344 179.640625 228.1875 189.714844 C 216.1875 201.984375 192.535156 205.683594 177.492188 201.113281 C 162.445312 196.5625 163.214844 180.378906 173.890625 173.863281 C 184.582031 167.347656 200.820312 170.933594 214.671875 169.199219 C 228.292969 167.484375 229.984375 155.566406 230.039062 155.195312 C 235.050781 155.089844 238.558594 154.882812 240.800781 154.4375 Z M 240.835938 154.636719 " fill-opacity="1" fill-rule="nonzero"/><path fill="#e8dbcf" d="M 255.871094 168.101562 C 260.019531 174.511719 254.894531 185.910156 244.210938 187.761719 C 244.210938 187.761719 252.929688 183.203125 253.253906 175.382812 C 253.585938 167.5625 250.636719 169.085938 248.136719 169.085938 C 245.632812 169.085938 244.53125 168.648438 244.96875 166.261719 C 245.40625 163.871094 251.734375 161.699219 255.871094 168.101562 Z M 255.871094 168.101562 " fill-opacity="1" fill-rule="nonzero"/><path fill="#e8dbcf" d="M 252.929688 203.617188 C 255.007812 208.160156 234.398438 221.144531 190.1875 216.246094 L 190.417969 214.046875 C 225.363281 217.871094 245.953125 207.757812 245.953125 204.484375 C 245.953125 200.792969 230.691406 202.527344 230.691406 199.273438 C 230.691406 196.011719 250.75 198.835938 252.929688 203.617188 Z M 252.929688 203.617188 " fill-opacity="1" fill-rule="nonzero"/><path fill="#e8dbcf" d="M 230.039062 155.195312 C 228.914062 155.21875 227.71875 155.238281 226.4375 155.253906 C 218.628906 155.347656 207.875 155.324219 193.511719 155.507812 C 181.050781 155.671875 170.242188 155.226562 161.574219 154.621094 C 146.886719 153.578125 138.359375 152.03125 138.359375 152.03125 C 160.484375 152.363281 215.863281 151.273438 228.832031 150.726562 C 241.8125 150.191406 220.445312 144.761719 203.769531 142.699219 C 187.085938 140.632812 170.078125 142.804688 170.078125 142.804688 C 170.078125 142.804688 188.941406 136.722656 214.558594 140.199219 C 240.171875 143.671875 246.171875 150.839844 243.554688 153.335938 C 243.058594 153.8125 242.160156 154.167969 240.800781 154.4375 C 238.558594 154.882812 235.050781 155.089844 230.039062 155.195312 Z M 230.039062 155.195312 " fill-opacity="1" fill-rule="nonzero"/><path fill="#e8dbcf" d="M 242.902344 159.09375 C 242.902344 159.09375 247.085938 172.75 233.421875 191.125 C 222.1875 206.222656 188.175781 216.210938 163.972656 201.660156 C 139.769531 187.109375 135.515625 167.128906 135.953125 159.847656 C 136.386719 152.578125 144.027344 154.53125 144.351562 157.355469 C 144.4375 158.148438 144.160156 159.234375 143.898438 160.71875 C 143.21875 164.539062 142.667969 170.96875 149.035156 181.460938 C 153.910156 189.5 163.03125 198.152344 175.5625 202.503906 C 185.742188 206.046875 198.160156 206.753906 212.375 201.984375 C 244.097656 191.347656 242.902344 159.09375 242.902344 159.09375 Z M 242.902344 159.09375 " fill-opacity="1" fill-rule="nonzero"/><path fill="#e8dbcf" d="M 190.417969 214.046875 L 190.1875 216.246094 C 187.90625 215.996094 185.566406 215.691406 183.160156 215.34375 C 134.101562 208.175781 115.351562 183.851562 116.222656 178.421875 C 116.222656 178.421875 133.011719 203.183594 176.402344 211.871094 C 181.292969 212.851562 185.96875 213.5625 190.417969 214.046875 Z M 190.417969 214.046875 " fill-opacity="1" fill-rule="nonzero"/><path fill="#e8dbcf" d="M 197.878906 149.105469 C 197.878906 149.105469 189.15625 148.015625 187.304688 139.875 C 185.449219 131.730469 194.28125 123.042969 195.914062 111.3125 C 197.550781 99.585938 187.628906 89.160156 176.617188 87.964844 C 164.304688 86.632812 162.773438 88.726562 161.902344 90.898438 C 161.03125 93.070312 162.992188 93.941406 161.574219 96.003906 C 160.15625 98.066406 154.488281 98.285156 154.378906 94.265625 C 154.269531 90.25 158.347656 83.410156 173.785156 84.925781 C 189.265625 86.449219 198.378906 95.996094 199.078125 105.125 C 199.949219 116.527344 189.351562 129.550781 189.15625 136.617188 C 188.9375 144.433594 197.878906 149.105469 197.878906 149.105469 Z M 197.878906 149.105469 " fill-opacity="1" fill-rule="nonzero"/><path fill="#c9a377" d="M 196.894531 137.808594 C 196.894531 137.808594 194.0625 133.792969 198.09375 126.734375 C 202.128906 119.675781 211.613281 110.878906 205.507812 101.433594 C 199.402344 91.984375 191.554688 90.464844 191.992188 83.1875 C 192.425781 75.914062 200.058594 71.136719 204.089844 74.609375 C 208.125 78.085938 201.585938 83.1875 197.878906 78.847656 C 197.878906 78.847656 193.625 82.753906 197.113281 88.078125 C 200.601562 93.398438 209.730469 99.039062 210.304688 107.40625 C 211.066406 118.480469 196.460938 126.300781 196.894531 137.808594 Z M 196.894531 137.808594 " fill-opacity="1" fill-rule="nonzero"/><g fill="#e8dbcf" fill-opacity="1"><g transform="translate(117.825033, 269.461624)"><g><path d="M 3.53125 2.4375 C 3.101562 2.4375 2.664062 2.160156 2.21875 1.609375 C 1.769531 1.066406 1.546875 0.390625 1.546875 -0.421875 C 1.546875 -1.066406 1.703125 -1.695312 2.015625 -2.3125 C 2.578125 -3.488281 3.140625 -4.441406 3.703125 -5.171875 C 3.890625 -5.453125 4.03125 -5.6875 4.125 -5.875 C 4.226562 -6.070312 4.296875 -6.335938 4.328125 -6.671875 C 4.710938 -7.179688 5.226562 -8.09375 5.875 -9.40625 C 6.96875 -11.164062 8.523438 -13.882812 10.546875 -17.5625 C 10.828125 -18.0625 11.378906 -19.050781 12.203125 -20.53125 C 13.023438 -22.019531 13.578125 -22.90625 13.859375 -23.1875 L 14.0625 -23.484375 C 13.976562 -23.335938 14.125 -23.65625 14.5 -24.4375 C 14.882812 -25.226562 15.289062 -25.9375 15.71875 -26.5625 C 16.15625 -27.195312 16.546875 -27.515625 16.890625 -27.515625 C 17.253906 -27.515625 17.671875 -27.363281 18.140625 -27.0625 C 18.617188 -26.769531 19.03125 -26.335938 19.375 -25.765625 C 19.726562 -25.191406 19.90625 -24.515625 19.90625 -23.734375 C 19.90625 -23.390625 19.890625 -23.125 19.859375 -22.9375 L 19.453125 -20.078125 L 19.234375 -19.15625 C 18.867188 -17.300781 18.320312 -14.765625 17.59375 -11.546875 C 16.945312 -8.691406 16.625 -6.972656 16.625 -6.390625 C 16.625 -6.210938 16.648438 -6.078125 16.703125 -5.984375 C 16.765625 -5.890625 16.835938 -5.84375 16.921875 -5.84375 C 16.984375 -5.84375 17.125 -5.929688 17.34375 -6.109375 C 17.570312 -6.296875 17.769531 -6.570312 17.9375 -6.9375 L 18.484375 -7.765625 L 19.1875 -8.8125 C 19.976562 -9.90625 20.945312 -11.382812 22.09375 -13.25 C 23.238281 -15.113281 25.097656 -18.3125 27.671875 -22.84375 C 28.203125 -23.632812 28.640625 -24.320312 28.984375 -24.90625 C 29.429688 -25.632812 29.863281 -26.320312 30.28125 -26.96875 C 30.695312 -27.613281 31.019531 -28.019531 31.25 -28.1875 C 31.53125 -28.40625 31.878906 -28.515625 32.296875 -28.515625 C 32.710938 -28.484375 33.148438 -28.328125 33.609375 -28.046875 C 34.078125 -27.773438 34.472656 -27.382812 34.796875 -26.875 C 35.117188 -26.375 35.28125 -25.828125 35.28125 -25.234375 C 35.28125 -24.566406 35.078125 -23.335938 34.671875 -21.546875 C 34.265625 -19.753906 33.796875 -18.019531 33.265625 -16.34375 C 33.148438 -15.75 32.800781 -14.363281 32.21875 -12.1875 C 31.769531 -10.5625 31.4375 -9.269531 31.21875 -8.3125 C 31.007812 -7.363281 30.90625 -6.59375 30.90625 -6 L 30.90625 -5.671875 C 30.488281 -4.910156 30.28125 -3.398438 30.28125 -1.140625 C 30.164062 -0.210938 29.953125 0.507812 29.640625 1.03125 C 29.335938 1.550781 29.085938 1.8125 28.890625 1.8125 L 28.765625 1.765625 C 28.628906 1.765625 28.5 1.828125 28.375 1.953125 C 28.25 2.078125 28.070312 2.140625 27.84375 2.140625 C 27.144531 2.140625 26.691406 1.882812 26.484375 1.375 C 26.273438 0.875 26.171875 0.191406 26.171875 -0.671875 C 26.171875 -1.171875 26.179688 -1.59375 26.203125 -1.9375 C 26.285156 -2.664062 27.179688 -6.457031 28.890625 -13.3125 C 30.234375 -18.6875 30.90625 -21.5 30.90625 -21.75 L 30.328125 -20.75 C 29.765625 -19.6875 29.0625 -18.441406 28.21875 -17.015625 L 25.28125 -11.515625 C 24.914062 -11.003906 24.613281 -10.507812 24.375 -10.03125 C 24.144531 -9.5625 24.015625 -9.285156 23.984375 -9.203125 C 23.648438 -8.523438 22.976562 -7.554688 21.96875 -6.296875 C 21.632812 -5.878906 21.4375 -5.613281 21.375 -5.5 C 21.238281 -5.195312 20.789062 -4.660156 20.03125 -3.890625 C 19.28125 -3.117188 18.484375 -2.414062 17.640625 -1.78125 C 16.796875 -1.15625 16.097656 -0.84375 15.546875 -0.84375 C 14.785156 -0.84375 14.101562 -1.207031 13.5 -1.9375 C 12.894531 -2.664062 12.59375 -3.546875 12.59375 -4.578125 C 12.59375 -5.335938 12.734375 -6.597656 13.015625 -8.359375 C 13.460938 -10.285156 13.9375 -12.242188 14.4375 -14.234375 C 14.945312 -16.222656 15.300781 -17.523438 15.5 -18.140625 C 15.582031 -18.390625 15.625 -18.671875 15.625 -18.984375 C 15.625 -19.179688 15.597656 -19.304688 15.546875 -19.359375 C 15.515625 -19.359375 15.476562 -19.328125 15.4375 -19.265625 C 15.394531 -19.210938 15.34375 -19.144531 15.28125 -19.0625 C 14.863281 -18.394531 14.207031 -17.21875 13.3125 -15.53125 C 12.414062 -13.851562 11.453125 -11.882812 10.421875 -9.625 C 6.410156 -2.257812 4.113281 1.757812 3.53125 2.4375 Z M 3.53125 2.4375 "/></g></g></g><g fill="#e8dbcf" fill-opacity="1"><g transform="translate(148.443024, 269.461624)"><g><path d="M 7.0625 -0.296875 C 6.71875 -0.296875 6.445312 -0.347656 6.25 -0.453125 C 6.0625 -0.566406 5.785156 -0.78125 5.421875 -1.09375 C 4.859375 -1.675781 4.421875 -2.28125 4.109375 -2.90625 C 3.804688 -3.539062 3.695312 -4.097656 3.78125 -4.578125 C 3.863281 -4.773438 3.894531 -4.96875 3.875 -5.15625 C 3.863281 -5.351562 3.859375 -5.484375 3.859375 -5.546875 C 3.753906 -5.660156 3.703125 -5.738281 3.703125 -5.78125 C 3.703125 -5.820312 3.726562 -5.863281 3.78125 -5.90625 C 3.832031 -5.945312 3.875 -5.992188 3.90625 -6.046875 C 4.070312 -6.046875 4.128906 -6.203125 4.078125 -6.515625 C 4.015625 -6.734375 4.109375 -7.21875 4.359375 -7.96875 C 4.617188 -8.726562 4.941406 -9.429688 5.328125 -10.078125 C 5.640625 -10.585938 6.097656 -11.21875 6.703125 -11.96875 C 7.304688 -12.726562 7.84375 -13.300781 8.3125 -13.6875 C 9.71875 -14.894531 10.976562 -15.625 12.09375 -15.875 C 12.65625 -16.019531 13.203125 -16.09375 13.734375 -16.09375 C 14.546875 -16.09375 15.175781 -15.863281 15.625 -15.40625 C 16.238281 -15.15625 16.6875 -14.789062 16.96875 -14.3125 C 17.25 -13.84375 17.429688 -13.21875 17.515625 -12.4375 C 17.546875 -12.269531 17.5625 -11.988281 17.5625 -11.59375 C 17.5625 -9.519531 16.773438 -7.363281 15.203125 -5.125 C 14.554688 -4.195312 13.910156 -3.453125 13.265625 -2.890625 C 12.628906 -2.335938 11.847656 -1.78125 10.921875 -1.21875 C 10.410156 -0.882812 9.875 -0.660156 9.3125 -0.546875 C 8.757812 -0.429688 8.007812 -0.347656 7.0625 -0.296875 Z M 11.34375 -5.421875 C 11.875 -5.890625 12.257812 -6.367188 12.5 -6.859375 C 12.738281 -7.359375 13.082031 -8.222656 13.53125 -9.453125 C 13.695312 -9.703125 13.78125 -10.207031 13.78125 -10.96875 C 13.78125 -11.632812 13.679688 -12.007812 13.484375 -12.09375 C 13.335938 -12.207031 13.171875 -12.265625 12.984375 -12.265625 C 12.722656 -12.265625 12.316406 -12.066406 11.765625 -11.671875 C 10.785156 -10.835938 9.960938 -9.960938 9.296875 -9.046875 C 8.640625 -8.140625 8.1875 -7.097656 7.9375 -5.921875 C 7.90625 -5.804688 7.890625 -5.640625 7.890625 -5.421875 C 7.890625 -4.460938 8.226562 -3.984375 8.90625 -3.984375 C 9.550781 -3.984375 10.363281 -4.460938 11.34375 -5.421875 Z M 11.34375 -5.421875 "/></g></g></g><g fill="#e8dbcf" fill-opacity="1"><g transform="translate(163.647025, 269.461624)"><g><path d="M 15.328125 0.59375 C 14.796875 0.59375 14.207031 0.34375 13.5625 -0.15625 C 12.914062 -0.664062 11.960938 -1.75 10.703125 -3.40625 C 10.703125 -3.570312 10.535156 -3.960938 10.203125 -4.578125 C 9.867188 -5.191406 9.660156 -5.539062 9.578125 -5.625 C 9.578125 -5.539062 9.515625 -5.703125 9.390625 -6.109375 C 9.265625 -6.515625 9.0625 -6.71875 8.78125 -6.71875 C 8.632812 -6.71875 8.398438 -6.414062 8.078125 -5.8125 C 7.765625 -5.207031 7.476562 -4.503906 7.21875 -3.703125 C 6.96875 -2.910156 6.84375 -2.207031 6.84375 -1.59375 C 6.84375 -1.144531 6.71875 -0.742188 6.46875 -0.390625 C 6.21875 -0.046875 5.867188 0.125 5.421875 0.125 C 5.054688 0.0390625 4.578125 -0.382812 3.984375 -1.15625 C 3.398438 -1.925781 3.109375 -2.535156 3.109375 -2.984375 L 3.703125 -4.75 L 4.5 -7.265625 C 4.75 -7.628906 4.945312 -8.066406 5.09375 -8.578125 C 5.25 -9.097656 5.34375 -9.398438 5.375 -9.484375 C 5.625 -9.992188 6.085938 -11.0625 6.765625 -12.6875 C 7.265625 -13.96875 7.628906 -14.832031 7.859375 -15.28125 C 8.609375 -17.019531 9.445312 -18.96875 10.375 -21.125 L 10.5 -21.421875 C 10.976562 -22.398438 11.472656 -23.53125 11.984375 -24.8125 C 12.503906 -26.101562 12.804688 -26.960938 12.890625 -27.390625 L 12.890625 -27.546875 C 12.890625 -27.773438 13.050781 -27.941406 13.375 -28.046875 C 13.695312 -28.160156 14.109375 -28.21875 14.609375 -28.21875 C 14.867188 -28.21875 15.191406 -27.972656 15.578125 -27.484375 C 15.972656 -26.992188 16.171875 -26.554688 16.171875 -26.171875 C 16.171875 -25.210938 15.34375 -22.972656 13.6875 -19.453125 C 12.488281 -16.953125 11.613281 -15.03125 11.0625 -13.6875 C 10.519531 -12.34375 10.25 -11.53125 10.25 -11.25 C 10.25 -11.164062 10.265625 -11.125 10.296875 -11.125 C 10.347656 -11.15625 10.457031 -11.203125 10.625 -11.265625 C 10.789062 -11.335938 10.988281 -11.445312 11.21875 -11.59375 C 11.414062 -11.707031 11.820312 -11.988281 12.4375 -12.4375 C 13.550781 -13.332031 14.316406 -13.832031 14.734375 -13.9375 C 15.972656 -14.78125 16.734375 -15.203125 17.015625 -15.203125 C 17.316406 -15.203125 17.632812 -15.007812 17.96875 -14.625 C 18.3125 -14.25 18.484375 -13.894531 18.484375 -13.5625 C 18.484375 -12.976562 18.019531 -12.351562 17.09375 -11.6875 C 16.164062 -11.03125 14.921875 -10.269531 13.359375 -9.40625 C 12.578125 -8.988281 12.128906 -8.722656 12.015625 -8.609375 C 12.015625 -8.578125 12.347656 -8.085938 13.015625 -7.140625 C 13.242188 -6.722656 13.429688 -6.351562 13.578125 -6.03125 C 13.734375 -5.707031 13.882812 -5.421875 14.03125 -5.171875 C 14.445312 -4.296875 14.78125 -3.695312 15.03125 -3.375 C 15.28125 -3.050781 15.644531 -2.890625 16.125 -2.890625 C 16.269531 -2.890625 16.507812 -2.9375 16.84375 -3.03125 C 17.175781 -3.132812 17.425781 -3.1875 17.59375 -3.1875 C 18.019531 -3.1875 18.367188 -3.046875 18.640625 -2.765625 C 18.921875 -2.492188 19.0625 -2.1875 19.0625 -1.84375 C 19.0625 -1.59375 18.816406 -1.269531 18.328125 -0.875 C 17.835938 -0.488281 17.285156 -0.148438 16.671875 0.140625 C 16.054688 0.441406 15.609375 0.59375 15.328125 0.59375 Z M 15.328125 0.59375 "/></g></g><g transform="translate(179.355024, 269.461624)"><g><path d="M 5.203125 -0.875 C 5.117188 -1.050781 4.878906 -1.273438 4.484375 -1.546875 C 4.097656 -1.828125 3.90625 -2 3.90625 -2.0625 C 3.90625 -2.164062 3.84375 -2.320312 3.71875 -2.53125 C 3.59375 -2.75 3.472656 -2.941406 3.359375 -3.109375 C 3.140625 -3.328125 3.296875 -4.050781 3.828125 -5.28125 C 4.359375 -6.519531 5.070312 -7.976562 5.96875 -9.65625 C 6.132812 -9.820312 6.347656 -10.113281 6.609375 -10.53125 C 6.878906 -10.957031 7.054688 -11.195312 7.140625 -11.25 C 7.140625 -11.363281 7.179688 -11.46875 7.265625 -11.5625 C 7.347656 -11.664062 7.445312 -11.71875 7.5625 -11.71875 L 7.890625 -12.390625 C 8.003906 -12.640625 8.550781 -13.238281 9.53125 -14.1875 C 10.507812 -15.144531 11.28125 -15.789062 11.84375 -16.125 C 12.375 -16.488281 12.945312 -16.671875 13.5625 -16.671875 C 14.238281 -16.671875 14.8125 -16.476562 15.28125 -16.09375 L 16.421875 -15.125 C 17.265625 -14.414062 17.738281 -14.007812 17.84375 -13.90625 L 19.40625 -12.515625 L 18.6875 -10.421875 C 18.4375 -9.660156 18.3125 -8.945312 18.3125 -8.28125 C 18.3125 -7.207031 18.601562 -6.210938 19.1875 -5.296875 C 19.332031 -4.984375 19.523438 -4.742188 19.765625 -4.578125 C 20.003906 -4.410156 20.316406 -4.296875 20.703125 -4.234375 C 21.316406 -4.128906 21.625 -3.820312 21.625 -3.3125 C 21.625 -2.695312 21.507812 -2.234375 21.28125 -1.921875 C 21.0625 -1.617188 20.800781 -1.425781 20.5 -1.34375 C 20.050781 -1.289062 19.742188 -1.265625 19.578125 -1.265625 C 18.765625 -1.265625 18.019531 -1.472656 17.34375 -1.890625 C 16.675781 -2.304688 16.085938 -3.019531 15.578125 -4.03125 C 15.460938 -4.195312 15.316406 -4.503906 15.140625 -4.953125 C 14.960938 -5.398438 14.859375 -5.707031 14.828125 -5.875 C 14.628906 -5.59375 14.304688 -5.226562 13.859375 -4.78125 C 10.972656 -1.875 8.632812 -0.421875 6.84375 -0.421875 C 6.226562 -0.421875 5.679688 -0.570312 5.203125 -0.875 Z M 7.515625 -4.375 C 7.960938 -4.3125 8.832031 -4.8125 10.125 -5.875 C 10.257812 -5.988281 10.410156 -6.125 10.578125 -6.28125 C 10.753906 -6.4375 10.9375 -6.597656 11.125 -6.765625 C 11.914062 -7.410156 12.523438 -7.945312 12.953125 -8.375 C 13.390625 -8.8125 13.832031 -9.335938 14.28125 -9.953125 L 15.203125 -11.46875 C 14.921875 -12.082031 14.664062 -12.492188 14.4375 -12.703125 C 14.21875 -12.910156 14 -13.015625 13.78125 -13.015625 C 13.21875 -13.015625 12.515625 -12.515625 11.671875 -11.515625 C 10.835938 -10.523438 9.832031 -9.023438 8.65625 -7.015625 C 8.34375 -6.515625 8.085938 -5.988281 7.890625 -5.4375 C 7.703125 -4.894531 7.578125 -4.539062 7.515625 -4.375 Z M 7.515625 -4.375 "/></g></g><g transform="translate(198.087023, 269.461624)"><g/></g><g transform="translate(208.251022, 269.461624)"><g><path d="M 5 2.390625 C 4.851562 2.390625 4.703125 2.335938 4.546875 2.234375 C 4.398438 2.140625 4.269531 2.007812 4.15625 1.84375 C 3.9375 1.644531 3.753906 1.40625 3.609375 1.125 C 3.472656 0.851562 3.40625 0.4375 3.40625 -0.125 C 3.40625 -1.101562 3.710938 -2.519531 4.328125 -4.375 C 4.523438 -5.15625 4.734375 -5.910156 4.953125 -6.640625 C 5.148438 -7.140625 5.25 -7.515625 5.25 -7.765625 C 5.25 -7.992188 5.28125 -8.253906 5.34375 -8.546875 C 5.414062 -8.835938 5.453125 -9.039062 5.453125 -9.15625 C 5.796875 -9.15625 6.109375 -9.726562 6.390625 -10.875 C 6.492188 -11.300781 6.585938 -11.660156 6.671875 -11.953125 C 6.753906 -12.242188 6.8125 -12.472656 6.84375 -12.640625 C 6.90625 -12.722656 6.96875 -12.847656 7.03125 -13.015625 C 7.101562 -13.179688 7.164062 -13.335938 7.21875 -13.484375 C 7.445312 -14.148438 7.710938 -14.789062 8.015625 -15.40625 C 8.359375 -16.664062 8.757812 -17.988281 9.21875 -19.375 C 9.675781 -20.769531 10.0625 -21.800781 10.375 -22.46875 L 10.875 -23.734375 C 10.90625 -23.816406 10.96875 -23.972656 11.0625 -24.203125 C 11.164062 -24.441406 11.21875 -24.617188 11.21875 -24.734375 C 11.21875 -24.847656 11.175781 -24.929688 11.09375 -24.984375 C 10.894531 -25.128906 10.796875 -25.410156 10.796875 -25.828125 C 10.796875 -26.523438 11.0625 -27.097656 11.59375 -27.546875 C 11.894531 -27.910156 12.304688 -28.171875 12.828125 -28.328125 C 13.347656 -28.484375 13.972656 -28.5625 14.703125 -28.5625 C 15.003906 -28.5625 15.550781 -28.53125 16.34375 -28.46875 C 16.675781 -28.445312 17.570312 -28.4375 19.03125 -28.4375 C 19.195312 -28.351562 19.503906 -28.226562 19.953125 -28.0625 C 20.898438 -27.664062 21.375 -27.425781 21.375 -27.34375 C 21.375 -27.195312 21.421875 -27.097656 21.515625 -27.046875 C 21.617188 -26.992188 21.769531 -26.953125 21.96875 -26.921875 C 22.269531 -26.921875 22.820312 -26.539062 23.625 -25.78125 C 24.425781 -25.03125 24.976562 -24.332031 25.28125 -23.6875 C 25.53125 -23.1875 25.703125 -22.796875 25.796875 -22.515625 C 25.898438 -22.234375 25.953125 -21.882812 25.953125 -21.46875 C 25.953125 -21.289062 25.925781 -20.976562 25.875 -20.53125 C 25.8125 -20.082031 25.738281 -19.648438 25.65625 -19.234375 C 25.570312 -18.816406 25.476562 -18.550781 25.375 -18.4375 C 24.925781 -18.101562 24.703125 -17.8125 24.703125 -17.5625 C 24.703125 -17.28125 24.296875 -16.492188 23.484375 -15.203125 C 22.671875 -13.910156 21.957031 -12.972656 21.34375 -12.390625 C 20.613281 -11.546875 19.742188 -10.800781 18.734375 -10.15625 C 17.554688 -9.625 16.234375 -9.160156 14.765625 -8.765625 C 13.296875 -8.378906 12.179688 -8.203125 11.421875 -8.234375 C 10.523438 -8.085938 9.972656 -7.96875 9.765625 -7.875 C 9.554688 -7.78125 9.394531 -7.550781 9.28125 -7.1875 C 9.144531 -6.789062 9.007812 -6.394531 8.875 -6 C 8.75 -5.613281 8.6875 -5.347656 8.6875 -5.203125 C 8.519531 -4.898438 8.175781 -3.960938 7.65625 -2.390625 C 7.144531 -0.828125 6.789062 0.375 6.59375 1.21875 C 6.476562 1.582031 6.253906 1.867188 5.921875 2.078125 C 5.585938 2.285156 5.28125 2.390625 5 2.390625 Z M 10.96875 -11.640625 C 11.019531 -11.578125 11.171875 -11.546875 11.421875 -11.546875 C 12.148438 -11.546875 13.101562 -11.769531 14.28125 -12.21875 C 15.289062 -12.550781 16.410156 -13.097656 17.640625 -13.859375 C 18.253906 -14.273438 18.984375 -15.019531 19.828125 -16.09375 C 19.992188 -16.363281 20.328125 -17.019531 20.828125 -18.0625 C 21.054688 -18.445312 21.273438 -18.945312 21.484375 -19.5625 C 21.691406 -20.1875 21.796875 -20.734375 21.796875 -21.203125 C 21.796875 -21.429688 21.78125 -21.601562 21.75 -21.71875 C 21.476562 -23.164062 20.664062 -24.128906 19.3125 -24.609375 C 18.414062 -24.753906 17.789062 -24.828125 17.4375 -24.828125 C 17.238281 -24.828125 16.914062 -24.796875 16.46875 -24.734375 C 16.019531 -24.597656 15.703125 -24.410156 15.515625 -24.171875 C 15.335938 -23.929688 15.078125 -23.390625 14.734375 -22.546875 C 13.835938 -20.835938 13.253906 -19.609375 12.984375 -18.859375 C 12.453125 -16.953125 11.988281 -15.488281 11.59375 -14.46875 C 11.195312 -13.445312 10.972656 -12.851562 10.921875 -12.6875 L 10.921875 -12.515625 C 10.921875 -12.347656 10.90625 -12.179688 10.875 -12.015625 C 10.851562 -11.847656 10.882812 -11.722656 10.96875 -11.640625 Z M 10.96875 -11.640625 "/></g></g></g><g fill="#e8dbcf" fill-opacity="1"><g transform="translate(228.075015, 269.461624)"><g><path d="M 7.0625 -0.296875 C 6.71875 -0.296875 6.445312 -0.347656 6.25 -0.453125 C 6.0625 -0.566406 5.785156 -0.78125 5.421875 -1.09375 C 4.859375 -1.675781 4.421875 -2.28125 4.109375 -2.90625 C 3.804688 -3.539062 3.695312 -4.097656 3.78125 -4.578125 C 3.863281 -4.773438 3.894531 -4.96875 3.875 -5.15625 C 3.863281 -5.351562 3.859375 -5.484375 3.859375 -5.546875 C 3.753906 -5.660156 3.703125 -5.738281 3.703125 -5.78125 C 3.703125 -5.820312 3.726562 -5.863281 3.78125 -5.90625 C 3.832031 -5.945312 3.875 -5.992188 3.90625 -6.046875 C 4.070312 -6.046875 4.128906 -6.203125 4.078125 -6.515625 C 4.015625 -6.734375 4.109375 -7.21875 4.359375 -7.96875 C 4.617188 -8.726562 4.941406 -9.429688 5.328125 -10.078125 C 5.640625 -10.585938 6.097656 -11.21875 6.703125 -11.96875 C 7.304688 -12.726562 7.84375 -13.300781 8.3125 -13.6875 C 9.71875 -14.894531 10.976562 -15.625 12.09375 -15.875 C 12.65625 -16.019531 13.203125 -16.09375 13.734375 -16.09375 C 14.546875 -16.09375 15.175781 -15.863281 15.625 -15.40625 C 16.238281 -15.15625 16.6875 -14.789062 16.96875 -14.3125 C 17.25 -13.84375 17.429688 -13.21875 17.515625 -12.4375 C 17.546875 -12.269531 17.5625 -11.988281 17.5625 -11.59375 C 17.5625 -9.519531 16.773438 -7.363281 15.203125 -5.125 C 14.554688 -4.195312 13.910156 -3.453125 13.265625 -2.890625 C 12.628906 -2.335938 11.847656 -1.78125 10.921875 -1.21875 C 10.410156 -0.882812 9.875 -0.660156 9.3125 -0.546875 C 8.757812 -0.429688 8.007812 -0.347656 7.0625 -0.296875 Z M 11.34375 -5.421875 C 11.875 -5.890625 12.257812 -6.367188 12.5 -6.859375 C 12.738281 -7.359375 13.082031 -8.222656 13.53125 -9.453125 C 13.695312 -9.703125 13.78125 -10.207031 13.78125 -10.96875 C 13.78125 -11.632812 13.679688 -12.007812 13.484375 -12.09375 C 13.335938 -12.207031 13.171875 -12.265625 12.984375 -12.265625 C 12.722656 -12.265625 12.316406 -12.066406 11.765625 -11.671875 C 10.785156 -10.835938 9.960938 -9.960938 9.296875 -9.046875 C 8.640625 -8.140625 8.1875 -7.097656 7.9375 -5.921875 C 7.90625 -5.804688 7.890625 -5.640625 7.890625 -5.421875 C 7.890625 -4.460938 8.226562 -3.984375 8.90625 -3.984375 C 9.550781 -3.984375 10.363281 -4.460938 11.34375 -5.421875 Z M 11.34375 -5.421875 "/></g></g></g><g fill="#e8dbcf" fill-opacity="1"><g transform="translate(243.279016, 269.461624)"><g><path d="M 7.1875 0.046875 C 6.738281 -0.0351562 6.234375 -0.390625 5.671875 -1.015625 C 5.109375 -1.648438 4.757812 -2.191406 4.625 -2.640625 C 4.625 -2.703125 4.59375 -2.765625 4.53125 -2.828125 C 4.476562 -2.898438 4.4375 -2.953125 4.40625 -2.984375 C 4.289062 -3.066406 4.234375 -3.53125 4.234375 -4.375 C 4.234375 -5.039062 4.269531 -5.738281 4.34375 -6.46875 C 4.414062 -7.195312 4.507812 -7.785156 4.625 -8.234375 L 5.375 -10.453125 L 5.96875 -12.140625 L 7.09375 -14.578125 L 5.421875 -15.03125 C 5.222656 -15.0625 5.0625 -15.160156 4.9375 -15.328125 C 4.8125 -15.492188 4.75 -15.648438 4.75 -15.796875 C 4.75 -16.015625 4.863281 -16.332031 5.09375 -16.75 C 5.332031 -17.175781 5.523438 -17.390625 5.671875 -17.390625 C 5.753906 -17.359375 5.976562 -17.34375 6.34375 -17.34375 C 7.1875 -17.34375 7.816406 -17.382812 8.234375 -17.46875 C 8.515625 -17.582031 8.707031 -17.804688 8.8125 -18.140625 C 8.957031 -18.453125 9.097656 -18.710938 9.234375 -18.921875 C 9.378906 -19.128906 9.519531 -19.359375 9.65625 -19.609375 C 9.738281 -19.773438 9.867188 -20.035156 10.046875 -20.390625 C 10.234375 -20.742188 10.46875 -21.144531 10.75 -21.59375 C 10.8125 -21.675781 10.9375 -21.878906 11.125 -22.203125 C 11.320312 -22.523438 11.5625 -22.796875 11.84375 -23.015625 C 12.007812 -23.148438 12.234375 -23.265625 12.515625 -23.359375 C 12.796875 -23.460938 13.078125 -23.515625 13.359375 -23.515625 C 13.859375 -23.515625 14.265625 -23.375 14.578125 -23.09375 C 14.828125 -22.707031 14.953125 -22.414062 14.953125 -22.21875 C 14.953125 -21.988281 14.835938 -21.695312 14.609375 -21.34375 C 14.441406 -21 14.164062 -20.546875 13.78125 -19.984375 C 13.4375 -19.484375 13.179688 -19.082031 13.015625 -18.78125 C 12.734375 -18.414062 12.59375 -18.132812 12.59375 -17.9375 C 12.59375 -17.738281 12.773438 -17.640625 13.140625 -17.640625 C 13.535156 -17.640625 14.195312 -17.722656 15.125 -17.890625 C 15.257812 -17.921875 15.453125 -17.9375 15.703125 -17.9375 C 16.378906 -17.9375 16.859375 -17.738281 17.140625 -17.34375 C 17.421875 -16.957031 17.5625 -16.46875 17.5625 -15.875 C 17.5625 -15.476562 17.425781 -15.238281 17.15625 -15.15625 C 16.894531 -15.070312 16.300781 -15.03125 15.375 -15.03125 C 14.476562 -14.894531 13.550781 -14.828125 12.59375 -14.828125 C 12.425781 -14.828125 12.238281 -14.816406 12.03125 -14.796875 C 11.820312 -14.785156 11.601562 -14.753906 11.375 -14.703125 C 11.15625 -14.640625 10.992188 -14.550781 10.890625 -14.4375 C 10.796875 -14.332031 10.691406 -14.15625 10.578125 -13.90625 C 10.492188 -13.820312 10.300781 -13.5 10 -12.9375 C 9.601562 -12.125 9.347656 -11.632812 9.234375 -11.46875 C 8.503906 -9.34375 7.945312 -7.144531 7.5625 -4.875 C 7.53125 -4.707031 7.515625 -4.492188 7.515625 -4.234375 C 7.515625 -3.878906 7.632812 -3.625 7.875 -3.46875 C 8.113281 -3.3125 8.582031 -3.234375 9.28125 -3.234375 C 10.0625 -3.234375 10.804688 -3.332031 11.515625 -3.53125 C 12.347656 -3.894531 12.972656 -4.203125 13.390625 -4.453125 C 13.648438 -4.585938 13.882812 -4.71875 14.09375 -4.84375 C 14.300781 -4.976562 14.445312 -5.070312 14.53125 -5.125 C 14.644531 -5.34375 14.832031 -5.3125 15.09375 -5.03125 C 15.363281 -4.757812 15.566406 -4.441406 15.703125 -4.078125 C 15.703125 -3.566406 15.601562 -3.109375 15.40625 -2.703125 C 15.21875 -2.296875 14.726562 -1.867188 13.9375 -1.421875 C 13.039062 -0.867188 12.117188 -0.460938 11.171875 -0.203125 C 10.222656 0.046875 9.328125 0.171875 8.484375 0.171875 C 8.003906 0.171875 7.570312 0.128906 7.1875 0.046875 Z M 7.1875 0.046875 "/></g></g></g><g fill="#e8dbcf" fill-opacity="1"><g transform="translate(133.840909, 300.737793)"><g><path d="M 3.859375 0.078125 C 3.210938 0.078125 2.632812 -0.0625 2.125 -0.34375 C 1.625 -0.625 1.226562 -1.007812 0.9375 -1.5 C 0.644531 -2 0.5 -2.5625 0.5 -3.1875 C 0.5 -3.800781 0.644531 -4.351562 0.9375 -4.84375 C 1.226562 -5.34375 1.625 -5.726562 2.125 -6 C 2.632812 -6.28125 3.210938 -6.421875 3.859375 -6.421875 C 4.441406 -6.421875 4.957031 -6.300781 5.40625 -6.0625 C 5.851562 -5.832031 6.203125 -5.5 6.453125 -5.0625 L 5.578125 -4.5 C 5.378906 -4.800781 5.128906 -5.023438 4.828125 -5.171875 C 4.535156 -5.328125 4.210938 -5.40625 3.859375 -5.40625 C 3.441406 -5.40625 3.066406 -5.3125 2.734375 -5.125 C 2.398438 -4.945312 2.140625 -4.6875 1.953125 -4.34375 C 1.765625 -4.007812 1.671875 -3.625 1.671875 -3.1875 C 1.671875 -2.738281 1.765625 -2.34375 1.953125 -2 C 2.140625 -1.65625 2.398438 -1.390625 2.734375 -1.203125 C 3.066406 -1.023438 3.441406 -0.9375 3.859375 -0.9375 C 4.210938 -0.9375 4.535156 -1.007812 4.828125 -1.15625 C 5.128906 -1.3125 5.378906 -1.539062 5.578125 -1.84375 L 6.453125 -1.296875 C 6.203125 -0.859375 5.851562 -0.519531 5.40625 -0.28125 C 4.957031 -0.0390625 4.441406 0.078125 3.859375 0.078125 Z M 3.859375 0.078125 "/></g></g></g><g fill="#e8dbcf" fill-opacity="1"><g transform="translate(143.932921, 300.737793)"><g><path d="M 3.8125 0.078125 C 3.1875 0.078125 2.617188 -0.0625 2.109375 -0.34375 C 1.609375 -0.625 1.210938 -1.007812 0.921875 -1.5 C 0.640625 -2 0.5 -2.5625 0.5 -3.1875 C 0.5 -3.800781 0.640625 -4.351562 0.921875 -4.84375 C 1.210938 -5.34375 1.609375 -5.726562 2.109375 -6 C 2.617188 -6.28125 3.1875 -6.421875 3.8125 -6.421875 C 4.445312 -6.421875 5.015625 -6.28125 5.515625 -6 C 6.015625 -5.726562 6.40625 -5.34375 6.6875 -4.84375 C 6.96875 -4.351562 7.109375 -3.800781 7.109375 -3.1875 C 7.109375 -2.5625 6.96875 -2 6.6875 -1.5 C 6.40625 -1.007812 6.015625 -0.625 5.515625 -0.34375 C 5.015625 -0.0625 4.445312 0.078125 3.8125 0.078125 Z M 3.8125 -0.9375 C 4.21875 -0.9375 4.582031 -1.03125 4.90625 -1.21875 C 5.238281 -1.40625 5.492188 -1.664062 5.671875 -2 C 5.859375 -2.34375 5.953125 -2.738281 5.953125 -3.1875 C 5.953125 -3.625 5.859375 -4.007812 5.671875 -4.34375 C 5.492188 -4.6875 5.238281 -4.945312 4.90625 -5.125 C 4.582031 -5.3125 4.21875 -5.40625 3.8125 -5.40625 C 3.40625 -5.40625 3.039062 -5.3125 2.71875 -5.125 C 2.394531 -4.945312 2.140625 -4.6875 1.953125 -4.34375 C 1.765625 -4.007812 1.671875 -3.625 1.671875 -3.1875 C 1.671875 -2.738281 1.765625 -2.34375 1.953125 -2 C 2.140625 -1.664062 2.394531 -1.40625 2.71875 -1.21875 C 3.039062 -1.03125 3.40625 -0.9375 3.8125 -0.9375 Z M 3.8125 -0.9375 "/></g></g></g><g fill="#e8dbcf" fill-opacity="1"><g transform="translate(154.792934, 300.737793)"><g><path d="M 3.421875 -8.03125 C 2.734375 -8.03125 2.390625 -7.65625 2.390625 -6.90625 L 2.390625 -6.359375 L 4.234375 -6.359375 L 4.234375 -5.40625 L 2.40625 -5.40625 L 2.40625 0 L 1.265625 0 L 1.265625 -5.40625 L 0.1875 -5.40625 L 0.1875 -6.359375 L 1.265625 -6.359375 L 1.265625 -6.921875 C 1.265625 -7.554688 1.445312 -8.054688 1.8125 -8.421875 C 2.175781 -8.785156 2.691406 -8.96875 3.359375 -8.96875 C 3.617188 -8.96875 3.859375 -8.9375 4.078125 -8.875 C 4.304688 -8.8125 4.5 -8.722656 4.65625 -8.609375 L 4.3125 -7.734375 C 4.039062 -7.929688 3.742188 -8.03125 3.421875 -8.03125 Z M 3.421875 -8.03125 "/></g></g></g><g fill="#e8dbcf" fill-opacity="1"><g transform="translate(162.268941, 300.737793)"><g><path d="M 3.421875 -8.03125 C 2.734375 -8.03125 2.390625 -7.65625 2.390625 -6.90625 L 2.390625 -6.359375 L 4.234375 -6.359375 L 4.234375 -5.40625 L 2.40625 -5.40625 L 2.40625 0 L 1.265625 0 L 1.265625 -5.40625 L 0.1875 -5.40625 L 0.1875 -6.359375 L 1.265625 -6.359375 L 1.265625 -6.921875 C 1.265625 -7.554688 1.445312 -8.054688 1.8125 -8.421875 C 2.175781 -8.785156 2.691406 -8.96875 3.359375 -8.96875 C 3.617188 -8.96875 3.859375 -8.9375 4.078125 -8.875 C 4.304688 -8.8125 4.5 -8.722656 4.65625 -8.609375 L 4.3125 -7.734375 C 4.039062 -7.929688 3.742188 -8.03125 3.421875 -8.03125 Z M 3.421875 -8.03125 "/></g></g></g><g fill="#e8dbcf" fill-opacity="1"><g transform="translate(169.744948, 300.737793)"><g><path d="M 6.84375 -3.140625 C 6.84375 -3.054688 6.832031 -2.941406 6.8125 -2.796875 L 1.65625 -2.796875 C 1.726562 -2.234375 1.972656 -1.78125 2.390625 -1.4375 C 2.816406 -1.101562 3.335938 -0.9375 3.953125 -0.9375 C 4.710938 -0.9375 5.328125 -1.191406 5.796875 -1.703125 L 6.4375 -0.953125 C 6.144531 -0.617188 5.785156 -0.363281 5.359375 -0.1875 C 4.929688 -0.0078125 4.453125 0.078125 3.921875 0.078125 C 3.253906 0.078125 2.660156 -0.0546875 2.140625 -0.328125 C 1.617188 -0.609375 1.210938 -1 0.921875 -1.5 C 0.640625 -2 0.5 -2.5625 0.5 -3.1875 C 0.5 -3.800781 0.632812 -4.351562 0.90625 -4.84375 C 1.1875 -5.34375 1.566406 -5.726562 2.046875 -6 C 2.535156 -6.28125 3.085938 -6.421875 3.703125 -6.421875 C 4.304688 -6.421875 4.84375 -6.28125 5.3125 -6 C 5.789062 -5.726562 6.164062 -5.34375 6.4375 -4.84375 C 6.707031 -4.351562 6.84375 -3.785156 6.84375 -3.140625 Z M 3.703125 -5.453125 C 3.148438 -5.453125 2.6875 -5.28125 2.3125 -4.9375 C 1.9375 -4.601562 1.71875 -4.164062 1.65625 -3.625 L 5.734375 -3.625 C 5.671875 -4.15625 5.453125 -4.59375 5.078125 -4.9375 C 4.710938 -5.28125 4.253906 -5.453125 3.703125 -5.453125 Z M 3.703125 -5.453125 "/></g></g></g><g fill="#e8dbcf" fill-opacity="1"><g transform="translate(180.328964, 300.737793)"><g><path d="M 6.84375 -3.140625 C 6.84375 -3.054688 6.832031 -2.941406 6.8125 -2.796875 L 1.65625 -2.796875 C 1.726562 -2.234375 1.972656 -1.78125 2.390625 -1.4375 C 2.816406 -1.101562 3.335938 -0.9375 3.953125 -0.9375 C 4.710938 -0.9375 5.328125 -1.191406 5.796875 -1.703125 L 6.4375 -0.953125 C 6.144531 -0.617188 5.785156 -0.363281 5.359375 -0.1875 C 4.929688 -0.0078125 4.453125 0.078125 3.921875 0.078125 C 3.253906 0.078125 2.660156 -0.0546875 2.140625 -0.328125 C 1.617188 -0.609375 1.210938 -1 0.921875 -1.5 C 0.640625 -2 0.5 -2.5625 0.5 -3.1875 C 0.5 -3.800781 0.632812 -4.351562 0.90625 -4.84375 C 1.1875 -5.34375 1.566406 -5.726562 2.046875 -6 C 2.535156 -6.28125 3.085938 -6.421875 3.703125 -6.421875 C 4.304688 -6.421875 4.84375 -6.28125 5.3125 -6 C 5.789062 -5.726562 6.164062 -5.34375 6.4375 -4.84375 C 6.707031 -4.351562 6.84375 -3.785156 6.84375 -3.140625 Z M 3.703125 -5.453125 C 3.148438 -5.453125 2.6875 -5.28125 2.3125 -4.9375 C 1.9375 -4.601562 1.71875 -4.164062 1.65625 -3.625 L 5.734375 -3.625 C 5.671875 -4.15625 5.453125 -4.59375 5.078125 -4.9375 C 4.710938 -5.28125 4.253906 -5.453125 3.703125 -5.453125 Z M 3.703125 -5.453125 "/></g></g></g><g fill="#e8dbcf" fill-opacity="1"><g transform="translate(190.91298, 300.737793)"><g><path d="M 4.484375 -6.421875 C 5.296875 -6.421875 5.9375 -6.1875 6.40625 -5.71875 C 6.882812 -5.25 7.125 -4.5625 7.125 -3.65625 L 7.125 0 L 5.96875 0 L 5.96875 -3.53125 C 5.96875 -4.144531 5.820312 -4.609375 5.53125 -4.921875 C 5.238281 -5.234375 4.816406 -5.390625 4.265625 -5.390625 C 3.640625 -5.390625 3.144531 -5.207031 2.78125 -4.84375 C 2.425781 -4.476562 2.25 -3.957031 2.25 -3.28125 L 2.25 0 L 1.09375 0 L 1.09375 -8.90625 L 2.25 -8.90625 L 2.25 -5.453125 C 2.488281 -5.765625 2.800781 -6.003906 3.1875 -6.171875 C 3.570312 -6.335938 4.003906 -6.421875 4.484375 -6.421875 Z M 4.484375 -6.421875 "/></g></g></g><g fill="#e8dbcf" fill-opacity="1"><g transform="translate(202.324999, 300.737793)"><g><path d="M 3.8125 0.078125 C 3.1875 0.078125 2.617188 -0.0625 2.109375 -0.34375 C 1.609375 -0.625 1.210938 -1.007812 0.921875 -1.5 C 0.640625 -2 0.5 -2.5625 0.5 -3.1875 C 0.5 -3.800781 0.640625 -4.351562 0.921875 -4.84375 C 1.210938 -5.34375 1.609375 -5.726562 2.109375 -6 C 2.617188 -6.28125 3.1875 -6.421875 3.8125 -6.421875 C 4.445312 -6.421875 5.015625 -6.28125 5.515625 -6 C 6.015625 -5.726562 6.40625 -5.34375 6.6875 -4.84375 C 6.96875 -4.351562 7.109375 -3.800781 7.109375 -3.1875 C 7.109375 -2.5625 6.96875 -2 6.6875 -1.5 C 6.40625 -1.007812 6.015625 -0.625 5.515625 -0.34375 C 5.015625 -0.0625 4.445312 0.078125 3.8125 0.078125 Z M 3.8125 -0.9375 C 4.21875 -0.9375 4.582031 -1.03125 4.90625 -1.21875 C 5.238281 -1.40625 5.492188 -1.664062 5.671875 -2 C 5.859375 -2.34375 5.953125 -2.738281 5.953125 -3.1875 C 5.953125 -3.625 5.859375 -4.007812 5.671875 -4.34375 C 5.492188 -4.6875 5.238281 -4.945312 4.90625 -5.125 C 4.582031 -5.3125 4.21875 -5.40625 3.8125 -5.40625 C 3.40625 -5.40625 3.039062 -5.3125 2.71875 -5.125 C 2.394531 -4.945312 2.140625 -4.6875 1.953125 -4.34375 C 1.765625 -4.007812 1.671875 -3.625 1.671875 -3.1875 C 1.671875 -2.738281 1.765625 -2.34375 1.953125 -2 C 2.140625 -1.664062 2.394531 -1.40625 2.71875 -1.21875 C 3.039062 -1.03125 3.40625 -0.9375 3.8125 -0.9375 Z M 3.8125 -0.9375 "/></g></g></g><g fill="#e8dbcf" fill-opacity="1"><g transform="translate(213.185013, 300.737793)"><g><path d="M 7.015625 -6.359375 L 7.015625 0 L 5.921875 0 L 5.921875 -0.953125 C 5.691406 -0.628906 5.382812 -0.375 5 -0.1875 C 4.625 -0.0078125 4.210938 0.078125 3.765625 0.078125 C 2.921875 0.078125 2.253906 -0.15625 1.765625 -0.625 C 1.273438 -1.09375 1.03125 -1.785156 1.03125 -2.703125 L 1.03125 -6.359375 L 2.1875 -6.359375 L 2.1875 -2.828125 C 2.1875 -2.210938 2.332031 -1.742188 2.625 -1.421875 C 2.925781 -1.109375 3.351562 -0.953125 3.90625 -0.953125 C 4.507812 -0.953125 4.988281 -1.132812 5.34375 -1.5 C 5.695312 -1.875 5.875 -2.398438 5.875 -3.078125 L 5.875 -6.359375 Z M 7.015625 -6.359375 "/></g></g></g><g fill="#e8dbcf" fill-opacity="1"><g transform="translate(224.549024, 300.737793)"><g><path d="M 2.921875 0.078125 C 2.398438 0.078125 1.898438 0.0078125 1.421875 -0.125 C 0.941406 -0.269531 0.5625 -0.453125 0.28125 -0.671875 L 0.765625 -1.578125 C 1.046875 -1.378906 1.382812 -1.21875 1.78125 -1.09375 C 2.1875 -0.976562 2.59375 -0.921875 3 -0.921875 C 4.007812 -0.921875 4.515625 -1.207031 4.515625 -1.78125 C 4.515625 -1.976562 4.445312 -2.128906 4.3125 -2.234375 C 4.175781 -2.347656 4.003906 -2.429688 3.796875 -2.484375 C 3.585938 -2.535156 3.296875 -2.59375 2.921875 -2.65625 C 2.410156 -2.738281 1.992188 -2.832031 1.671875 -2.9375 C 1.347656 -3.039062 1.066406 -3.21875 0.828125 -3.46875 C 0.597656 -3.71875 0.484375 -4.066406 0.484375 -4.515625 C 0.484375 -5.085938 0.722656 -5.546875 1.203125 -5.890625 C 1.691406 -6.242188 2.335938 -6.421875 3.140625 -6.421875 C 3.566406 -6.421875 3.988281 -6.367188 4.40625 -6.265625 C 4.832031 -6.160156 5.179688 -6.019531 5.453125 -5.84375 L 4.96875 -4.9375 C 4.445312 -5.269531 3.832031 -5.4375 3.125 -5.4375 C 2.644531 -5.4375 2.273438 -5.351562 2.015625 -5.1875 C 1.753906 -5.03125 1.625 -4.820312 1.625 -4.5625 C 1.625 -4.351562 1.695312 -4.1875 1.84375 -4.0625 C 1.988281 -3.945312 2.164062 -3.859375 2.375 -3.796875 C 2.59375 -3.742188 2.894531 -3.679688 3.28125 -3.609375 C 3.789062 -3.523438 4.203125 -3.429688 4.515625 -3.328125 C 4.828125 -3.234375 5.09375 -3.0625 5.3125 -2.8125 C 5.539062 -2.570312 5.65625 -2.238281 5.65625 -1.8125 C 5.65625 -1.238281 5.410156 -0.78125 4.921875 -0.4375 C 4.429688 -0.09375 3.765625 0.078125 2.921875 0.078125 Z M 2.921875 0.078125 "/></g></g></g><g fill="#e8dbcf" fill-opacity="1"><g transform="translate(233.801039, 300.737793)"><g><path d="M 6.84375 -3.140625 C 6.84375 -3.054688 6.832031 -2.941406 6.8125 -2.796875 L 1.65625 -2.796875 C 1.726562 -2.234375 1.972656 -1.78125 2.390625 -1.4375 C 2.816406 -1.101562 3.335938 -0.9375 3.953125 -0.9375 C 4.710938 -0.9375 5.328125 -1.191406 5.796875 -1.703125 L 6.4375 -0.953125 C 6.144531 -0.617188 5.785156 -0.363281 5.359375 -0.1875 C 4.929688 -0.0078125 4.453125 0.078125 3.921875 0.078125 C 3.253906 0.078125 2.660156 -0.0546875 2.140625 -0.328125 C 1.617188 -0.609375 1.210938 -1 0.921875 -1.5 C 0.640625 -2 0.5 -2.5625 0.5 -3.1875 C 0.5 -3.800781 0.632812 -4.351562 0.90625 -4.84375 C 1.1875 -5.34375 1.566406 -5.726562 2.046875 -6 C 2.535156 -6.28125 3.085938 -6.421875 3.703125 -6.421875 C 4.304688 -6.421875 4.84375 -6.28125 5.3125 -6 C 5.789062 -5.726562 6.164062 -5.34375 6.4375 -4.84375 C 6.707031 -4.351562 6.84375 -3.785156 6.84375 -3.140625 Z M 3.703125 -5.453125 C 3.148438 -5.453125 2.6875 -5.28125 2.3125 -4.9375 C 1.9375 -4.601562 1.71875 -4.164062 1.65625 -3.625 L 5.734375 -3.625 C 5.671875 -4.15625 5.453125 -4.59375 5.078125 -4.9375 C 4.710938 -5.28125 4.253906 -5.453125 3.703125 -5.453125 Z M 3.703125 -5.453125 "/></g></g></g></svg>