<svg xmlns="http://www.w3.org/2000/svg" xmlns:xlink="http://www.w3.org/1999/xlink" width="500" zoomAndPan="magnify" viewBox="0 0 375 374.999991" height="500" preserveAspectRatio="xMidYMid meet" version="1.0"><path fill="#c9a377" d="M 264.984375 205.71875 C 264.792969 207.472656 261.800781 224.773438 218.238281 226.429688 C 172.347656 228.164062 153.417969 232.613281 141.902344 254.003906 C 131.84375 272.730469 144.910156 293.316406 163.507812 300.199219 L 163.507812 300.21875 C 138.507812 291.511719 120.3125 274.207031 110.585938 258.132812 C 97.886719 237.148438 98.984375 224.289062 100.339844 216.644531 L 100.375 216.644531 C 101.472656 211.886719 117.125 204.066406 135.601562 204.484375 L 135.601562 204.449219 C 152.894531 205.664062 174.449219 206.554688 199.3125 206.222656 C 227.960938 205.855469 249.414062 205.90625 264.984375 205.71875 Z M 264.984375 205.71875 " fill-opacity="1" fill-rule="nonzero"/><path fill="#e8dbcf" d="M 293.707031 204.484375 C 294.210938 206.898438 294.492188 209.902344 294.472656 213.363281 C 294.402344 229.222656 288.105469 254.488281 268.480469 274.640625 C 244.542969 299.175781 197.363281 306.574219 167.351562 297.4375 C 137.34375 288.332031 138.875 255.964844 160.167969 242.933594 C 181.496094 229.902344 213.890625 237.078125 241.515625 233.605469 C 268.691406 230.179688 272.066406 206.339844 272.171875 205.597656 C 282.171875 205.386719 289.164062 204.972656 293.636719 204.085938 Z M 293.707031 204.484375 " fill-opacity="1" fill-rule="nonzero"/><path fill="#e8dbcf" d="M 323.699219 231.414062 C 331.980469 244.234375 321.75 267.03125 300.441406 270.734375 C 300.441406 270.734375 317.835938 261.609375 318.480469 245.972656 C 319.140625 230.335938 313.261719 233.378906 308.269531 233.378906 C 303.277344 233.378906 301.085938 232.507812 301.953125 227.730469 C 302.824219 222.953125 315.453125 218.609375 323.699219 231.414062 Z M 323.699219 231.414062 " fill-opacity="1" fill-rule="nonzero"/><path fill="#e8dbcf" d="M 317.835938 302.441406 C 321.976562 311.53125 280.867188 337.5 192.683594 327.703125 L 193.136719 323.304688 C 262.84375 330.953125 303.917969 310.726562 303.917969 304.179688 C 303.917969 296.792969 273.476562 300.265625 273.476562 293.753906 C 273.476562 287.234375 313.488281 292.882812 317.835938 302.441406 Z M 317.835938 302.441406 " fill-opacity="1" fill-rule="nonzero"/><path fill="#e8dbcf" d="M 272.171875 205.597656 C 269.925781 205.648438 267.542969 205.683594 264.984375 205.71875 C 249.414062 205.90625 227.960938 205.855469 199.3125 206.222656 C 174.449219 206.554688 152.894531 205.664062 135.601562 204.449219 C 106.308594 202.363281 89.292969 199.269531 89.292969 199.269531 C 133.425781 199.933594 243.898438 197.757812 269.769531 196.664062 C 295.65625 195.589844 253.035156 184.730469 219.769531 180.609375 C 186.492188 176.472656 152.566406 180.820312 152.566406 180.820312 C 152.566406 180.820312 190.195312 168.65625 241.289062 175.605469 C 292.386719 182.554688 304.355469 196.890625 299.132812 201.878906 C 298.144531 202.832031 296.351562 203.546875 293.636719 204.085938 C 289.164062 204.972656 282.171875 205.386719 272.171875 205.597656 Z M 272.171875 205.597656 " fill-opacity="1" fill-rule="nonzero"/><path fill="#e8dbcf" d="M 297.832031 213.394531 C 297.832031 213.394531 306.179688 240.710938 278.917969 277.457031 C 256.515625 307.652344 188.664062 327.632812 140.386719 298.53125 C 92.109375 269.429688 83.621094 229.46875 84.492188 214.90625 C 85.359375 200.367188 100.601562 204.273438 101.246094 209.921875 C 101.417969 211.503906 100.863281 213.675781 100.339844 216.644531 C 98.984375 224.289062 97.886719 237.148438 110.585938 258.132812 C 120.3125 274.207031 138.507812 291.511719 163.507812 300.21875 C 183.8125 307.304688 208.585938 308.714844 236.941406 299.175781 C 300.214844 277.90625 297.832031 213.394531 297.832031 213.394531 Z M 297.832031 213.394531 " fill-opacity="1" fill-rule="nonzero"/><path fill="#e8dbcf" d="M 193.136719 323.304688 L 192.683594 327.703125 C 188.125 327.199219 183.460938 326.59375 178.660156 325.894531 C 80.804688 311.5625 43.398438 262.914062 45.140625 252.054688 C 45.140625 252.054688 78.628906 301.574219 165.179688 318.949219 C 174.9375 320.910156 184.261719 322.335938 193.136719 323.304688 Z M 193.136719 323.304688 " fill-opacity="1" fill-rule="nonzero"/><path fill="#e8dbcf" d="M 208.019531 193.417969 C 208.019531 193.417969 190.621094 191.242188 186.925781 174.957031 C 183.230469 158.667969 200.84375 141.292969 204.105469 117.835938 C 207.367188 94.382812 187.578125 73.53125 165.613281 71.140625 C 141.046875 68.472656 137.996094 72.664062 136.253906 77.007812 C 134.515625 81.351562 138.429688 83.089844 135.601562 87.214844 C 132.777344 91.34375 121.46875 91.777344 121.25 83.742188 C 121.03125 75.707031 129.167969 62.03125 159.957031 65.0625 C 190.839844 68.105469 209.015625 87.203125 210.410156 105.457031 C 212.152344 128.261719 191.015625 154.3125 190.621094 168.441406 C 190.1875 184.078125 208.019531 193.417969 208.019531 193.417969 Z M 208.019531 193.417969 " fill-opacity="1" fill-rule="nonzero"/><path fill="#c9a377" d="M 206.0625 170.828125 C 206.0625 170.828125 200.40625 162.792969 208.453125 148.675781 C 216.5 134.558594 235.417969 116.96875 223.238281 98.074219 C 211.0625 79.175781 195.40625 76.140625 196.277344 61.585938 C 197.144531 47.035156 212.367188 37.480469 220.414062 44.429688 C 228.460938 51.378906 215.414062 61.585938 208.019531 52.902344 C 208.019531 52.902344 199.539062 60.71875 206.496094 71.363281 C 213.453125 82.003906 231.660156 93.285156 232.8125 110.019531 C 234.332031 132.171875 205.191406 147.808594 206.0625 170.828125 Z M 206.0625 170.828125 " fill-opacity="1" fill-rule="nonzero"/></svg>